<svg width="27" height="27" viewBox="0 0 27 27" fill="none" xmlns="http://www.w3.org/2000/svg">
<path d="M9.70312 13.5C10.4021 13.5 10.9688 12.9334 10.9688 12.2344C10.9688 11.5354 10.4021 10.9688 9.70312 10.9688C9.00414 10.9688 8.4375 11.5354 8.4375 12.2344C8.4375 12.9334 9.00414 13.5 9.70312 13.5Z" fill="#198754"/>
<path d="M13.5044 20.25C11.1092 20.25 9.09479 18.6928 8.45724 16.5676C8.43941 16.5044 8.43659 16.4378 8.44903 16.3733C8.46146 16.3088 8.48879 16.2481 8.52884 16.196C8.5689 16.1439 8.62057 16.1019 8.67973 16.0733C8.73889 16.0447 8.80392 16.0303 8.86962 16.0313H18.1345C18.2002 16.0303 18.2652 16.0447 18.3244 16.0733C18.3836 16.1019 18.4352 16.1439 18.4753 16.196C18.5153 16.2481 18.5427 16.3088 18.5551 16.3733C18.5675 16.4378 18.5647 16.5044 18.5469 16.5676C17.9146 18.6928 15.8996 20.25 13.5044 20.25Z" fill="#198754"/>
<path d="M17.2969 13.5C17.9959 13.5 18.5625 12.9334 18.5625 12.2344C18.5625 11.5354 17.9959 10.9688 17.2969 10.9688C16.5979 10.9688 16.0312 11.5354 16.0312 12.2344C16.0312 12.9334 16.5979 13.5 17.2969 13.5Z" fill="#198754"/>
<path d="M13.5 24.4688C19.5579 24.4688 24.4688 19.5579 24.4688 13.5C24.4688 7.44213 19.5579 2.53125 13.5 2.53125C7.44213 2.53125 2.53125 7.44213 2.53125 13.5C2.53125 19.5579 7.44213 24.4688 13.5 24.4688Z" stroke="#198754" stroke-width="2" stroke-miterlimit="10"/>
</svg>
