<svg width="29" height="29" viewBox="0 0 29 29" fill="none" xmlns="http://www.w3.org/2000/svg">
<path d="M10.4219 14.5C11.1726 14.5 11.7812 13.8914 11.7812 13.1406C11.7812 12.3899 11.1726 11.7812 10.4219 11.7812C9.67111 11.7812 9.0625 12.3899 9.0625 13.1406C9.0625 13.8914 9.67111 14.5 10.4219 14.5Z" fill="#9A1111"/>
<path d="M14.4983 16.3125C17.0709 16.3125 19.2346 17.9851 19.9194 20.2677C19.9386 20.3359 19.9416 20.4076 19.9281 20.4771C19.9146 20.5466 19.885 20.612 19.8416 20.668C19.7983 20.7241 19.7424 20.7691 19.6785 20.7996C19.6146 20.8302 19.5444 20.8453 19.4736 20.8438H9.52243C9.45186 20.8448 9.38202 20.8294 9.31848 20.7987C9.25493 20.768 9.19944 20.7228 9.15641 20.6669C9.11339 20.6109 9.08404 20.5457 9.07068 20.4764C9.05733 20.4071 9.06035 20.3356 9.0795 20.2677C9.75862 17.9851 11.9229 16.3125 14.4983 16.3125Z" fill="#9A1111"/>
<path d="M18.5781 14.5C19.3289 14.5 19.9375 13.8914 19.9375 13.1406C19.9375 12.3899 19.3289 11.7812 18.5781 11.7812C17.8274 11.7812 17.2188 12.3899 17.2188 13.1406C17.2188 13.8914 17.8274 14.5 18.5781 14.5Z" fill="#9A1111"/>
<path d="M14.5 26.2812C21.0066 26.2812 26.2812 21.0066 26.2812 14.5C26.2812 7.9934 21.0066 2.71875 14.5 2.71875C7.9934 2.71875 2.71875 7.9934 2.71875 14.5C2.71875 21.0066 7.9934 26.2812 14.5 26.2812Z" stroke="#9A1111" stroke-width="2" stroke-miterlimit="10"/>
</svg>
