<svg width="23" height="20" viewBox="0 0 23 20" fill="none" xmlns="http://www.w3.org/2000/svg">
<path d="M19.3115 4.59998H3.38846C2.06935 4.59998 1 5.67449 1 6.99998V16.6C1 17.9255 2.06935 19 3.38846 19H19.3115C20.6307 19 21.7 17.9255 21.7 16.6V6.99998C21.7 5.67449 20.6307 4.59998 19.3115 4.59998Z" stroke="#D8A800" stroke-width="2" stroke-linejoin="round"/>
<path d="M19 4.99964V3.49947C18.9999 3.13154 18.9193 2.76816 18.7641 2.43527C18.6088 2.10238 18.3827 1.80818 18.1018 1.57367C17.8209 1.33916 17.4923 1.17011 17.1392 1.07859C16.7862 0.987064 16.4175 0.975322 16.0594 1.0442L3.01321 3.29195C2.44666 3.40094 1.93555 3.70609 1.56802 4.15477C1.2005 4.60345 0.999609 5.16753 1 5.74973V8.2" stroke="#D8A800" stroke-width="2" stroke-linejoin="round"/>
<path d="M16.7484 13.6C16.4814 13.6 16.2204 13.5208 15.9984 13.3725C15.7764 13.2242 15.6034 13.0133 15.5012 12.7666C15.399 12.52 15.3723 12.2485 15.4244 11.9867C15.4765 11.7248 15.605 11.4842 15.7938 11.2954C15.9826 11.1066 16.2232 10.9781 16.4851 10.926C16.7469 10.8739 17.0184 10.9006 17.2651 11.0028C17.5117 11.105 17.7226 11.278 17.8709 11.5C18.0193 11.722 18.0984 11.983 18.0984 12.25C18.0984 12.6081 17.9562 12.9514 17.703 13.2046C17.4499 13.4578 17.1065 13.6 16.7484 13.6Z" fill="#D8A800"/>
</svg>
