<svg xmlns="http://www.w3.org/2000/svg" width="24" height="24" viewBox="0 0 24 24">
  <path fill="#FA2922" d="M14,116 C14,117.104569 13.1045695,118 12,118 C10.8954305,118 10,117.104569 10,116 L4.25,116 C3.35909515,116 2.91292836,114.922858 3.54289322,114.292893 L4.12132034,113.714466 C4.68392948,113.151857 5,112.388795 5,111.593146 L5,105.5 C5,101.634007 8.13400675,98.5 12,98.5 C15.8659932,98.5 19,101.634007 19,105.5 L19,111.593146 C19,112.388795 19.3160705,113.151857 19.8786797,113.714466 L20.4571068,114.292893 C21.0870716,114.922858 20.6409049,116 19.75,116 L14,116 Z M17,111.593146 L17,105.5 C17,102.738576 14.7614237,100.5 12,100.5 C9.23857625,100.5 7,102.738576 7,105.5 L7,111.593146 C7,112.44217 6.78406049,113.268931 6.38259607,114 L17.6174039,114 C17.2159395,113.268931 17,112.44217 17,111.593146 Z M11,104 C11,103.447715 11.4477153,103 12,103 C12.5522847,103 13,103.447715 13,104 L13,108 C13,108.552285 12.5522847,109 12,109 C11.4477153,109 11,108.552285 11,108 L11,104 Z M12.01,112.13 C11.3914411,112.13 10.89,111.628559 10.89,111.01 C10.89,110.391441 11.3914411,109.89 12.01,109.89 C12.6285589,109.89 13.13,110.391441 13.13,111.01 C13.13,111.628559 12.6285589,112.13 12.01,112.13 Z" transform="translate(0 -96)"/>
</svg>
