<svg xmlns="http://www.w3.org/2000/svg" width="24" height="24" viewBox="0 0 24 24">
  <path fill="#0ccb63" d="M12,118 C6.4771525,118 2,113.522847 2,108 C2,102.477153 6.4771525,98 12,98 C17.5228475,98 22,102.477153 22,108 C22,113.522847 17.5228475,118 12,118 Z M12,116 C16.418278,116 20,112.418278 20,108 C20,103.581722 16.418278,100 12,100 C7.581722,100 4,103.581722 4,108 C4,112.418278 7.581722,116 12,116 Z M15.7928932,104.792893 C16.1834175,104.402369 16.8165825,104.402369 17.2071068,104.792893 C17.5976311,105.183418 17.5976311,105.816582 17.2071068,106.207107 L11.2071068,112.207107 C10.8165825,112.597631 10.1834175,112.597631 9.79289322,112.207107 L6.79289322,109.207107 C6.40236893,108.816582 6.40236893,108.183418 6.79289322,107.792893 C7.18341751,107.402369 7.81658249,107.402369 8.20710678,107.792893 L10.5,110.085786 L15.7928932,104.792893 Z" transform="translate(0 -96)"/>
</svg>
