<svg xmlns="http://www.w3.org/2000/svg" width="24" height="24" viewBox="0 0 24 24">
    <path fill="#B5B5B5"
          d="M10.5857864,76 L8.29289322,73.7071068 C7.90236893,73.3165825 7.90236893,72.6834175 8.29289322,72.2928932 C8.68341751,71.9023689 9.31658249,71.9023689 9.70710678,72.2928932 L12,74.5857864 L14.2928932,72.2928932 C14.6834175,71.9023689 15.3165825,71.9023689 15.7071068,72.2928932 C16.0976311,72.6834175 16.0976311,73.3165825 15.7071068,73.7071068 L13.4142136,76 L15.7071068,78.2928932 C16.0976311,78.6834175 16.0976311,79.3165825 15.7071068,79.7071068 C15.3165825,80.0976311 14.6834175,80.0976311 14.2928932,79.7071068 L12,77.4142136 L9.70710678,79.7071068 C9.31658249,80.0976311 8.68341751,80.0976311 8.29289322,79.7071068 C7.90236893,79.3165825 7.90236893,78.6834175 8.29289322,78.2928932 L10.5857864,76 Z M12,86 C6.4771525,86 2,81.5228475 2,76 C2,70.4771525 6.4771525,66 12,66 C17.5228475,66 22,70.4771525 22,76 C22,81.5228475 17.5228475,86 12,86 Z M12,84 C16.418278,84 20,80.418278 20,76 C20,71.581722 16.418278,68 12,68 C7.581722,68 4,71.581722 4,76 C4,80.418278 7.581722,84 12,84 Z"
          transform="translate(0 -64)"/>
</svg>
