<svg xmlns="http://www.w3.org/2000/svg" width="24" height="24" viewBox="0 0 24 24">
  <path fill="#FA2922" d="M13.1190091,111.5 C13.2943493,111.120585 13.5295283,110.767818 13.818826,110.456266 L14.9063043,109.285136 C15.6093044,108.528059 16,107.533138 16,106.5 C16,105.505902 15.5827707,104.557442 14.8499671,103.885705 L14.7985837,103.838603 C14.0347484,103.138421 13.0361948,102.75 12,102.75 C10.9638052,102.75 9.9652516,103.138421 9.20141635,103.838603 L9.15003291,103.885705 C8.4172293,104.557442 8,105.505902 8,106.5 C8,107.533138 8.39069561,108.528059 9.09369569,109.285136 L10.181174,110.456266 C10.4704717,110.767818 10.7056507,111.120585 10.8809909,111.5 L13.1190091,111.5 Z M12.75,113.5 L11.25,113.5 L11.25,114.25 C11.25,114.664214 11.5857864,115 12,115 C12.4142136,115 12.75,114.664214 12.75,114.25 L12.75,113.5 Z M7.84996709,102.364295 C8.982662,101.325991 10.4634219,100.75 12,100.75 C13.5365781,100.75 15.017338,101.325991 16.1500329,102.364295 L16.2014163,102.411397 C17.347478,103.461953 18,104.945289 18,106.5 C18,108.037961 17.4183986,109.51903 16.3718913,110.646038 L15.284413,111.817169 C14.9409058,112.187099 14.75,112.673248 14.75,113.178071 L14.75,114.25 C14.75,115.768783 13.5187831,117 12,117 C10.4812169,117 9.25,115.768783 9.25,114.25 L9.25,113.178071 C9.25,112.673248 9.05909423,112.187099 8.71558698,111.817169 L7.62810871,110.646038 C6.58160138,109.51903 6,108.037961 6,106.5 C6,104.945289 6.65252203,103.461953 7.79858365,102.411397 L7.84996709,102.364295 Z M5.29289322,112.792893 C5.68341751,112.402369 6.31658249,112.402369 6.70710678,112.792893 C7.09763107,113.183418 7.09763107,113.816582 6.70710678,114.207107 L5.20710678,115.707107 C4.81658249,116.097631 4.18341751,116.097631 3.79289322,115.707107 C3.40236893,115.316582 3.40236893,114.683418 3.79289322,114.292893 L5.29289322,112.792893 Z M2,108.5 C1.44771525,108.5 1,108.052285 1,107.5 C1,106.947715 1.44771525,106.5 2,106.5 L3,106.5 C3.55228475,106.5 4,106.947715 4,107.5 C4,108.052285 3.55228475,108.5 3,108.5 L2,108.5 Z M2.79289322,100.707107 C2.40236893,100.316582 2.40236893,99.6834175 2.79289322,99.2928932 C3.18341751,98.9023689 3.81658249,98.9023689 4.20710678,99.2928932 L5.70710678,100.792893 C6.09763107,101.183418 6.09763107,101.816582 5.70710678,102.207107 C5.31658249,102.597631 4.68341751,102.597631 4.29289322,102.207107 L2.79289322,100.707107 Z M19.7071068,102.207107 C19.3165825,102.597631 18.6834175,102.597631 18.2928932,102.207107 C17.9023689,101.816582 17.9023689,101.183418 18.2928932,100.792893 L19.7928932,99.2928932 C20.1834175,98.9023689 20.8165825,98.9023689 21.2071068,99.2928932 C21.5976311,99.6834175 21.5976311,100.316582 21.2071068,100.707107 L19.7071068,102.207107 Z M21,108.5 C20.4477153,108.5 20,108.052285 20,107.5 C20,106.947715 20.4477153,106.5 21,106.5 L22,106.5 C22.5522847,106.5 23,106.947715 23,107.5 C23,108.052285 22.5522847,108.5 22,108.5 L21,108.5 Z M17.2928932,114.207107 C16.9023689,113.816582 16.9023689,113.183418 17.2928932,112.792893 C17.6834175,112.402369 18.3165825,112.402369 18.7071068,112.792893 L20.2071068,114.292893 C20.5976311,114.683418 20.5976311,115.316582 20.2071068,115.707107 C19.8165825,116.097631 19.1834175,116.097631 18.7928932,115.707107 L17.2928932,114.207107 Z" transform="translate(0 -96)"/>
</svg>
